<?xml version="1.0" encoding="UTF-8"?>
<svg xmlns="http://www.w3.org/2000/svg" xmlns:xlink="http://www.w3.org/1999/xlink" width="25px" height="25px" viewBox="0 0 25 25" version="1.1">
<g id="surface1">
<path d="M 11.855469 4.25 C 11.464844 4.085938 11.019531 4.171875 10.71875 4.46875 L 6.863281 8.332031 L 4.167969 8.332031 C 3.015625 8.332031 2.082031 9.265625 2.082031 10.417969 L 2.082031 14.582031 C 2.082031 15.734375 3.015625 16.667969 4.167969 16.667969 L 6.863281 16.667969 L 10.71875 20.53125 C 10.914062 20.726562 11.179688 20.835938 11.457031 20.832031 C 11.59375 20.835938 11.730469 20.808594 11.855469 20.75 C 12.242188 20.589844 12.496094 20.210938 12.5 19.792969 L 12.5 5.207031 C 12.496094 4.789062 12.242188 4.410156 11.855469 4.25 Z M 11.855469 4.25 "/>
<path d="M 16.667969 16.144531 C 16.390625 16.148438 16.125 16.039062 15.925781 15.84375 C 15.730469 15.648438 15.617188 15.382812 15.617188 15.105469 C 15.617188 14.828125 15.730469 14.558594 15.925781 14.363281 L 21.136719 9.15625 C 21.542969 8.746094 22.207031 8.746094 22.613281 9.15625 C 23.023438 9.566406 23.023438 10.226562 22.613281 10.636719 L 17.40625 15.84375 C 17.210938 16.039062 16.945312 16.148438 16.667969 16.144531 Z M 16.667969 16.144531 "/>
<path d="M 21.875 16.144531 C 21.597656 16.148438 21.332031 16.039062 21.136719 15.84375 L 15.925781 10.636719 C 15.519531 10.226562 15.519531 9.566406 15.925781 9.15625 C 16.335938 8.746094 16.996094 8.746094 17.40625 9.15625 L 22.613281 14.363281 C 22.8125 14.558594 22.921875 14.828125 22.921875 15.105469 C 22.921875 15.382812 22.8125 15.648438 22.613281 15.84375 C 22.417969 16.039062 22.152344 16.148438 21.875 16.144531 Z M 21.875 16.144531 "/>
</g>
</svg>
