<?xml version="1.0" encoding="UTF-8"?>
<svg xmlns="http://www.w3.org/2000/svg" xmlns:xlink="http://www.w3.org/1999/xlink" width="25px" height="25px" viewBox="0 0 25 25" version="1.1">
<g id="surface1">
<path d="M 19.125 20.167969 C 18.851562 20.164062 18.589844 20.058594 18.394531 19.863281 C 17.992188 19.457031 17.992188 18.800781 18.394531 18.394531 C 19.960938 16.832031 20.839844 14.710938 20.839844 12.5 C 20.839844 10.289062 19.960938 8.167969 18.394531 6.605469 C 18.042969 6.191406 18.066406 5.574219 18.449219 5.191406 C 18.835938 4.804688 19.453125 4.78125 19.863281 5.136719 C 23.929688 9.203125 23.929688 15.796875 19.863281 19.863281 C 19.667969 20.058594 19.402344 20.167969 19.125 20.167969 Z M 19.125 20.167969 "/>
<path d="M 16.1875 17.230469 C 15.910156 17.226562 15.644531 17.117188 15.449219 16.917969 C 15.042969 16.511719 15.042969 15.855469 15.449219 15.449219 C 16.230469 14.667969 16.671875 13.605469 16.671875 12.5 C 16.671875 11.394531 16.230469 10.332031 15.449219 9.550781 C 15.09375 9.140625 15.117188 8.523438 15.503906 8.136719 C 15.886719 7.753906 16.503906 7.730469 16.917969 8.082031 C 19.355469 10.523438 19.355469 14.476562 16.917969 16.917969 C 16.722656 17.113281 16.460938 17.226562 16.1875 17.230469 Z M 16.1875 17.230469 "/>
<path d="M 11.855469 4.25 C 11.464844 4.085938 11.019531 4.171875 10.71875 4.46875 L 6.863281 8.332031 L 4.167969 8.332031 C 3.015625 8.332031 2.082031 9.265625 2.082031 10.417969 L 2.082031 14.582031 C 2.082031 15.734375 3.015625 16.667969 4.167969 16.667969 L 6.863281 16.667969 L 10.71875 20.53125 C 10.914062 20.726562 11.179688 20.835938 11.457031 20.832031 C 11.59375 20.835938 11.730469 20.808594 11.855469 20.75 C 12.242188 20.589844 12.496094 20.210938 12.5 19.792969 L 12.5 5.207031 C 12.496094 4.789062 12.242188 4.410156 11.855469 4.25 Z M 11.855469 4.25 "/>
</g>
</svg>
